<svg xmlns="http://www.w3.org/2000/svg" width="512" height="512" viewBox="0 0 512 512">
  <!-- 홈 화면 아이콘: 분홍 배경 위 웃는 삼각플라스크 -->
  <rect width="512" height="512" rx="112" fill="#FDF6F9"/>
  <circle cx="256" cy="256" r="180" fill="#FFD34E" opacity="0.22"/>
  <g transform="translate(256,268) scale(6.6) translate(-24,-29)">
    <clipPath id="ic"><path d="M19 4v20L10.5 45.5A4.5 4.5 0 0 0 14.6 52h18.8a4.5 4.5 0 0 0 4.1-6.5L29 24V4z"/></clipPath>
    <g clip-path="url(#ic)">
      <rect x="6" y="30" width="36" height="28" fill="#B32D6B"/>
      <circle cx="17" cy="49" r="1.3" fill="#fff" opacity=".55"/>
      <circle cx="25" cy="50" r="1" fill="#fff" opacity=".55"/>
      <circle cx="31" cy="48" r="1.2" fill="#fff" opacity=".55"/>
    </g>
    <circle cx="15.6" cy="45.4" r="2" fill="#E8447F" opacity=".4"/>
    <circle cx="32.4" cy="45.4" r="2" fill="#E8447F" opacity=".4"/>
    <circle cx="19.5" cy="41.5" r="1.8" fill="#241920"/>
    <circle cx="28.5" cy="41.5" r="1.8" fill="#241920"/>
    <path d="M20.6 45.4q3.4 3.2 6.8 0" fill="none" stroke="#241920" stroke-width="1.9" stroke-linecap="round"/>
    <path d="M16 4h16M19 4v20L10.5 45.5A4.5 4.5 0 0 0 14.6 52h18.8a4.5 4.5 0 0 0 4.1-6.5L29 24V4" fill="none" stroke="#8A1F52" stroke-width="2.4" stroke-linecap="round" stroke-linejoin="round"/>
  </g>
</svg>
